HIERARCHY
ROOT Hips
{
	OFFSET 0.00000 0.00000 0.00000
	CHANNELS 6 Xposition Yposition Zposition Zrotation Yrotation Xrotation 
	JOINT RightUpLegDummy
	{
		OFFSET 0 0 0
		CHANNELS 3 Zrotation Yrotation Xrotation
		JOINT RightUpLeg
		{
			OFFSET -3.52197 -3.41223 0.04002
			CHANNELS 3 Zrotation Yrotation Xrotation
			JOINT RightLeg
			{
				OFFSET 0.00006 -17.42390 1.60435
				CHANNELS 3 Zrotation Yrotation Xrotation
				JOINT RightFoot
				{
					OFFSET 0.06153 -16.50078 -1.63901
					CHANNELS 3 Zrotation Yrotation Xrotation
					JOINT RightToes
					{
						OFFSET 0.00298 -1.73825 3.34613
						CHANNELS 3 Zrotation Yrotation Xrotation
						End Site
						{
							OFFSET 0.00480 -0.05416 3.85043
						}
					}
				}
			}
		}
	}
	JOINT SpineDummy
	{
		OFFSET 0 0 0
		CHANNELS 3 Zrotation Yrotation Xrotation
		JOINT Spine
		{
			OFFSET 0.00000 4.68130 0.00000
			CHANNELS 3 Zrotation Yrotation Xrotation
			JOINT Spine1
			{
				OFFSET -0.00000 10.10138 0.05002
				CHANNELS 3 Zrotation Yrotation Xrotation
				JOINT HEadDummy
				{
					OFFSET 0 0 0
					CHANNELS 3 Zrotation Yrotation Xrotation
					JOINT Head
					{
						OFFSET -0.00000 3.43865 0.00438
						CHANNELS 3 Zrotation Yrotation Xrotation
						End Site
						{
							OFFSET -0.11417 5.02924 0.98962
						}
					}
				}
				JOINT LeftShoulder1Dummy
				{
					OFFSET 0 0 0
					CHANNELS 3 Zrotation Yrotation Xrotation
					JOINT LeftShoulder1
					{
						OFFSET 3.53937 -0.14262 -0.08662
						CHANNELS 3 Zrotation Yrotation Xrotation
						JOINT LeftArm
						{
							OFFSET 4.04833 -0.00133 0.12681
							CHANNELS 3 Zrotation Yrotation Xrotation
							JOINT LeftForeArm
							{
								OFFSET 10.33880 -0.01036 -0.55515
								CHANNELS 3 Zrotation Yrotation Xrotation
								JOINT LeftHand
								{
									OFFSET 8.69677 0.07543 0.40060
									CHANNELS 3 Zrotation Yrotation Xrotation
									End Site
									{
										OFFSET 5.28377 -0.21905 0.59205
									}
								}
							}
						}
					}
				}
				JOINT RightShoulderDummy
				{
					OFFSET 0 0 0
					CHANNELS 3 Zrotation Yrotation Xrotation
					JOINT RightShoulder
					{
						OFFSET -3.53937 -0.14262 -0.08660
						CHANNELS 3 Zrotation Yrotation Xrotation
						JOINT RightArm
						{
							OFFSET -4.04833 -0.00133 0.12683
							CHANNELS 3 Zrotation Yrotation Xrotation
							JOINT RightForeArm
							{
								OFFSET -10.37987 -0.01039 -0.55511
								CHANNELS 3 Zrotation Yrotation Xrotation
								JOINT RightHand
								{
									OFFSET -8.67398 0.07538 0.40058
									CHANNELS 3 Zrotation Yrotation Xrotation
									End Site
									{
										OFFSET -5.24810 -0.21916 0.59204
									}
								}
							}
						}
					}
				}
			}
		}
	}
	JOINT LeftUpLegDummy
	{
		OFFSET 0 0 0
		CHANNELS 3 Zrotation Yrotation Xrotation
		JOINT LeftUpLeg
		{
			OFFSET 3.52197 -3.41223 0.04002
			CHANNELS 3 Zrotation Yrotation Xrotation
			JOINT LeftLeg
			{
				OFFSET -0.00012 -17.42399 1.60337
				CHANNELS 3 Zrotation Yrotation Xrotation
				JOINT LeftFoot
				{
					OFFSET -0.09972 -16.50070 -1.63802
					CHANNELS 3 Zrotation Yrotation Xrotation
					JOINT LeftToes
					{
						OFFSET -0.01575 -1.73823 3.34611
						CHANNELS 3 Zrotation Yrotation Xrotation
						End Site
						{
							OFFSET 0.03150 -0.01868 3.85031
						}
					}
				}
			}
		}
	}
}
MOTION
Frames: 12
Frame Time: 0.033333
1.1358 40.1209 -3.0634 -2.5580 -12.2883 -0.3543 0.0000 0.0000 0.0000 -0.0101 -1.8045 0.0755 -0.9297 0.6965 2.4714 1.2380 -0.1170 -1.4602 0.0000 -0.0000 0.0000 0.0000 0.0000 0.0000 1.3243 -0.1754 -0.3692 3.9746 -1.1108 2.7740 -0.0000 0.0000 -0.0000 1.8819 3.1066 -4.5798 -0.0000 0.0000 -0.0000 -33.8961 -2.5678 2.4241 -45.1124 -17.0863 -16.8031 -10.3701 5.0362 51.2104 11.9471 -4.5310 -0.9846 -0.0000 0.0000 -0.0000 35.5638 5.3041 3.6611 38.7693 6.0517 -20.2072 9.4021 -0.3087 21.3682 -10.0070 2.7358 -0.6779 0.0000 0.0000 0.0000 1.7073 2.6348 0.7756 5.3978 23.2255 8.3110 0.7369 0.0141 -5.9161 0.0000 0.0000 -0.0000
1.1291 40.1209 -3.0678 -2.5443 -12.3459 -0.3376 0.0000 0.0000 0.0000 -0.0101 -1.7980 0.0389 -0.9329 0.7485 2.4804 1.2484 -0.1177 -1.4602 0.0000 -0.0000 0.0000 0.0000 0.0000 0.0000 1.2687 -0.1505 -0.3934 4.0043 -1.0886 2.7740 -0.0000 0.0000 -0.0000 1.8292 3.2022 -4.5499 -0.0000 0.0000 -0.0000 -33.8645 -2.5645 2.4207 -45.1505 -17.1059 -16.8234 -10.3581 5.0370 51.1901 11.8894 -4.5045 -0.9772 -0.0000 0.0000 -0.0000 35.5638 5.3041 3.6611 38.7794 6.0450 -20.1609 9.4335 -0.2830 21.1951 -10.1398 2.6951 -0.6839 0.0000 0.0000 0.0000 1.7017 2.6324 0.7609 5.4049 23.2749 8.3097 0.7098 0.0159 -5.8972 0.0000 0.0000 -0.0000
1.1196 40.1209 -3.0759 -2.5300 -12.3836 -0.3224 0.0000 0.0000 0.0000 -0.0070 -1.7909 -0.0043 -0.9354 0.7902 2.4996 1.2556 -0.1181 -1.4602 0.0000 -0.0000 0.0000 0.0000 0.0000 0.0000 1.2302 -0.1460 -0.4139 3.9759 -1.0759 2.7723 -0.0000 0.0000 -0.0000 1.7809 3.3069 -4.5177 -0.0000 0.0000 -0.0000 -33.7693 -2.5566 2.4132 -45.2341 -17.1225 -16.8632 -10.3244 5.0371 51.1989 11.8353 -4.4083 -0.9634 -0.0000 0.0000 -0.0000 35.5696 5.3041 3.6611 38.8011 6.0700 -20.1924 9.4334 -0.3005 20.9760 -10.1741 2.4039 -0.6632 0.0000 0.0000 0.0000 1.6911 2.6120 0.7385 5.4310 23.3109 8.3057 0.6702 0.0184 -5.8696 0.0000 0.0000 -0.0000
1.1125 40.1209 -3.0837 -2.5427 -12.3256 -0.3255 0.0000 0.0000 0.0000 0.0199 -1.7786 0.0058 -0.9419 0.7252 2.4845 1.2611 -0.1185 -1.4466 0.0000 -0.0000 0.0000 0.0000 0.0000 0.0000 1.2518 -0.1951 -0.3962 3.9064 -1.1125 2.7626 -0.0000 0.0000 -0.0000 1.7619 3.3216 -4.5531 -0.0000 0.0000 -0.0000 -33.6947 -2.5490 2.4096 -45.2750 -17.1210 -16.9191 -10.2822 5.0341 51.3121 11.9087 -4.3900 -0.9679 -0.0000 0.0000 -0.0000 35.5816 5.3041 3.6611 38.8151 6.0991 -20.2791 9.3950 -0.3229 20.9558 -9.9059 2.0607 -0.6184 0.0000 0.0000 0.0000 1.7035 2.5910 0.7071 5.4728 23.2586 8.3440 0.6394 0.0204 -5.8673 0.0000 0.0000 -0.0000
1.1067 40.1209 -3.0894 -2.5805 -12.1969 -0.3362 0.0000 0.0000 0.0000 0.0665 -1.7660 0.0668 -0.9516 0.5760 2.4178 1.2667 -0.1190 -1.4160 0.0000 -0.0000 0.0000 0.0000 0.0000 0.0000 1.2708 -0.2681 -0.3713 3.9037 -1.1880 2.7516 -0.0000 0.0000 -0.0000 1.7327 3.2846 -4.6343 -0.0000 0.0000 -0.0000 -33.7074 -2.5554 2.4074 -45.2382 -17.1208 -16.9659 -10.2610 5.0294 51.4722 12.0996 -4.5175 -0.9965 -0.0000 0.0000 -0.0000 35.5948 5.3041 3.6611 38.7910 6.0898 -20.2629 9.3966 -0.2838 21.0121 -9.6285 1.9430 -0.5916 0.0000 0.0000 0.0000 1.7525 2.5972 0.6695 5.4936 23.1253 8.4061 0.6264 0.0213 -5.8836 0.0000 0.0000 -0.0000
1.0997 40.1209 -3.0942 -2.6228 -12.0491 -0.3253 0.0000 0.0000 0.0000 0.1151 -1.7570 0.1128 -0.9522 0.4199 2.3427 1.2582 -0.1185 -1.3922 0.0000 -0.0000 0.0000 0.0000 0.0000 0.0000 1.2450 -0.3339 -0.4047 3.9826 -1.2728 2.7773 -0.0000 0.0000 -0.0000 1.6882 3.2836 -4.6621 -0.0000 0.0000 -0.0000 -33.7621 -2.5725 2.4058 -45.1869 -17.1234 -16.9817 -10.2613 5.0255 51.5899 12.2546 -4.6441 -1.0223 -0.0000 0.0000 -0.0000 35.6002 5.3041 3.6611 38.7572 6.0691 -20.1447 9.4507 -0.2196 20.9398 -9.6165 1.9814 -0.5938 0.0000 0.0000 0.0000 1.8200 2.6282 0.6126 5.4733 22.9474 8.4526 0.6439 0.0201 -5.8935 0.0000 0.0000 -0.0000
1.0920 40.1209 -3.0997 -2.6586 -11.9165 -0.2912 0.0000 0.0000 0.0000 0.1613 -1.7434 0.1117 -0.9519 0.2858 2.3029 1.2388 -0.1173 -1.3796 0.0000 -0.0000 0.0000 0.0000 0.0000 0.0000 1.2154 -0.3932 -0.4877 4.0530 -1.3505 2.8340 -0.0000 0.0000 -0.0000 1.6623 3.3534 -4.6007 -0.0000 0.0000 -0.0000 -33.7942 -2.5735 2.4047 -45.1760 -17.0952 -16.9828 -10.2564 5.0298 51.6434 12.2621 -4.6276 -1.0213 -0.0000 0.0000 -0.0000 35.5749 5.3041 3.6611 38.7810 6.0851 -20.0645 9.4871 -0.1912 20.8403 -9.7015 1.9683 -0.5982 0.0000 0.0000 0.0000 1.8855 2.6640 0.5342 5.4391 22.7697 8.4920 0.6774 0.0180 -5.9027 0.0000 0.0000 -0.0000
1.0849 40.1209 -3.1041 -2.6833 -11.8498 -0.2778 0.0000 0.0000 0.0000 0.1984 -1.7278 0.1099 -0.9553 0.1987 2.2950 1.2396 -0.1174 -1.3653 0.0000 -0.0000 0.0000 0.0000 0.0000 0.0000 1.2151 -0.4340 -0.5288 4.0707 -1.3981 2.8632 -0.0000 0.0000 -0.0000 1.6625 3.4394 -4.5183 -0.0000 0.0000 -0.0000 -33.8183 -2.5479 2.4043 -45.1802 -17.0169 -16.9937 -10.2537 5.0362 51.6094 12.1583 -4.5298 -1.0028 -0.0000 0.0000 -0.0000 35.5321 5.3041 3.6611 38.8431 6.1173 -20.0475 9.4852 -0.1951 20.8921 -9.6487 1.9091 -0.5904 0.0000 0.0000 0.0000 1.9384 2.6958 0.4929 5.4184 22.6704 8.5281 0.6831 0.0176 -5.9209 0.0000 0.0000 -0.0000
1.0775 40.1209 -3.1059 -2.6846 -11.8936 -0.3103 0.0000 0.0000 0.0000 0.2082 -1.7260 0.1381 -0.9499 0.2229 2.3021 1.2617 -0.1188 -1.3592 0.0000 -0.0000 0.0000 0.0000 0.0000 0.0000 1.2082 -0.4162 -0.4920 4.0837 -1.3804 2.8319 -0.0000 0.0000 -0.0000 1.6651 3.4527 -4.4652 -0.0000 0.0000 -0.0000 -33.8646 -2.5229 2.4048 -45.1671 -16.9232 -17.0093 -10.2616 5.0371 51.4750 12.0159 -4.4876 -0.9864 -0.0000 0.0000 -0.0000 35.5224 5.3041 3.6611 38.8470 6.1089 -20.0124 9.4928 -0.2203 21.0008 -9.5280 1.9016 -0.5822 0.0000 0.0000 0.0000 1.9625 2.7196 0.5426 5.4036 22.7029 8.5135 0.6605 0.0191 -5.9236 0.0000 0.0000 -0.0000
1.0691 40.1209 -3.1072 -2.6602 -11.9973 -0.3500 0.0000 0.0000 0.0000 0.1962 -1.7301 0.1553 -0.9432 0.3333 2.3210 1.2615 -0.1188 -1.3794 0.0000 -0.0000 0.0000 0.0000 0.0000 0.0000 1.1656 -0.3399 -0.4511 4.1284 -1.3057 2.7700 -0.0000 0.0000 -0.0000 1.6472 3.3845 -4.4111 -0.0000 0.0000 -0.0000 -33.9149 -2.5235 2.4076 -45.1499 -16.8558 -17.0254 -10.2690 5.0327 51.3645 11.8530 -4.5102 -0.9746 -0.0000 0.0000 -0.0000 35.5373 5.3041 3.6611 38.7965 6.0458 -19.9624 9.5187 -0.2607 20.9981 -9.4711 1.9337 -0.5810 0.0000 0.0000 0.0000 1.9513 2.7285 0.6312 5.3805 22.8027 8.4374 0.6660 0.0187 -5.8992 0.0000 0.0000 -0.0000
1.0624 40.1209 -3.1109 -2.6352 -12.0280 -0.3618 0.0000 0.0000 0.0000 0.1962 -1.7152 0.1468 -0.9651 0.3589 2.3364 1.2406 -0.1173 -1.4029 0.0000 -0.0000 0.0000 0.0000 0.0000 0.0000 1.1250 -0.2758 -0.4380 4.1835 -1.2454 2.6899 -0.0000 0.0000 -0.0000 1.5929 3.3288 -4.3309 -0.0000 0.0000 -0.0000 -33.9667 -2.5449 2.4193 -45.1353 -16.7981 -17.0706 -10.2403 5.0310 51.4300 11.7007 -4.5274 -0.9631 -0.0000 0.0000 -0.0000 35.5032 5.3022 3.6576 38.8065 5.9448 -19.9321 9.5358 -0.2547 20.9463 -9.5105 2.0330 -0.5908 0.0000 0.0000 0.0000 1.9396 2.7343 0.6677 5.3461 22.8232 8.3751 0.7120 0.0157 -5.8849 0.0000 0.0000 -0.0000
1.0601 40.1209 -3.1171 -2.6371 -11.9053 -0.3728 0.0000 0.0000 0.0000 0.2204 -1.6827 0.1610 -1.0172 0.1945 2.3473 1.2809 -0.1199 -1.4094 0.0000 -0.0000 0.0000 0.0000 0.0000 0.0000 1.1302 -0.2832 -0.3752 4.2243 -1.2562 2.5570 -0.0000 0.0000 -0.0000 1.5133 3.3228 -4.2646 -0.0000 0.0000 -0.0000 -34.0498 -2.5771 2.4373 -45.1049 -16.7113 -17.1573 -10.1807 5.0266 51.5943 11.6236 -4.5274 -0.9564 -0.0000 0.0000 -0.0000 35.4217 5.2886 3.6447 38.8850 5.8278 -19.8669 9.5599 -0.1838 20.9908 -9.7431 2.3023 -0.6264 0.0000 0.0000 0.0000 1.9772 2.7681 0.6432 5.2844 22.6552 8.3923 0.7538 0.0131 -5.8982 0.0000 0.0000 -0.0000
